<svg xmlns="http://www.w3.org/2000/svg" viewBox="0 0 212 64"><g  >
    <mask id="mask0_2026_7438" style="mask-type:luminance" maskUnits="userSpaceOnUse" x="0" y="-1" width="211"
          height="65">
      <path d="M0.0703125 63.7507H210.466V-0.0195312H0.0703125V63.7507Z" fill="white"/>
    </mask>
    <g mask="url(#mask0_2026_7438)">
      <path d="M79.2357 36.51V37.6321H76.6618V46.3867H74.7618V37.6321H72.1719V36.51H79.2357Z"/>
    </g>
    <mask id="mask1_2026_7438" style="mask-type:luminance" maskUnits="userSpaceOnUse" x="0" y="-1" width="211"
          height="65">
      <path d="M0.0703125 63.7507H210.466V-0.0195312H0.0703125V63.7507Z" fill="white"/>
    </mask>
    <g mask="url(#mask1_2026_7438)">
      <path
        d="M82.0941 35.5374V40.1316C82.3784 39.5337 83.0514 38.8447 84.2042 38.8447C85.2964 38.8447 85.8352 39.5031 86.0598 39.907C86.3142 40.3561 86.3142 41.0598 86.3142 41.7327V46.3867H84.5483V41.8531C84.5483 41.1793 84.5483 40.8352 84.3245 40.4757C84.2042 40.2519 83.9497 40.0266 83.5013 40.0266C82.977 40.0266 82.5279 40.386 82.288 41.0743C82.0941 41.643 82.0941 42.3911 82.0941 42.8257V46.3867H80.3281V35.5374H82.0941Z"/>
    </g>
    <mask id="mask2_2026_7438" style="mask-type:luminance" maskUnits="userSpaceOnUse" x="0" y="-1" width="211"
          height="65">
      <path d="M0.0703125 63.7507H210.466V-0.0195312H0.0703125V63.7507Z" fill="white"/>
    </mask>
    <g mask="url(#mask2_2026_7438)">
      <path
        d="M92.2861 41.6267C92.3006 40.49 91.8668 39.7565 91.1195 39.7565C90.5654 39.7565 89.8763 40.3245 89.7422 41.6267H92.2861ZM89.6824 42.4951C89.5927 44.4251 90.3561 45.4882 91.5227 45.4882C92.1512 45.4882 92.7506 45.1287 93.1537 44.8742L93.6481 45.7572C93.2288 45.9963 92.3305 46.5352 91.1939 46.5352C89.2033 46.5352 87.7969 44.9486 87.7969 42.6737C87.7969 40.3842 89.2631 38.8429 91.0889 38.8429C94.1716 38.8429 93.9325 42.0758 93.9325 42.4951H89.6824Z"/>
    </g>
    <mask id="mask3_2026_7438" style="mask-type:luminance" maskUnits="userSpaceOnUse" x="0" y="-1" width="211"
          height="65">
      <path d="M0.0703125 63.7507H210.466V-0.0195312H0.0703125V63.7507Z" fill="white"/>
    </mask>
    <g mask="url(#mask3_2026_7438)">
      <path
        d="M100.97 37.5716V41.0283H101.748C102.616 41.0283 103.648 40.9095 103.648 39.1428C103.648 37.4972 102.497 37.5716 101.763 37.5716H100.97ZM101.779 36.5092C103.05 36.5092 103.828 36.5391 104.561 36.9883C105.444 37.5271 105.625 38.4844 105.625 39.1129C105.625 41.0736 104.113 42.1213 102.182 42.1213H100.97V46.3867H99.0547V36.5092H101.779Z"/>
    </g>
    <mask id="mask4_2026_7438" style="mask-type:luminance" maskUnits="userSpaceOnUse" x="0" y="-1" width="211"
          height="65">
      <path d="M0.0703125 63.7507H210.466V-0.0195312H0.0703125V63.7507Z" fill="white"/>
    </mask>
    <g mask="url(#mask4_2026_7438)">
      <path
        d="M110.661 41.6267C110.676 40.49 110.242 39.7565 109.494 39.7565C108.94 39.7565 108.251 40.3245 108.117 41.6267H110.661ZM108.057 42.4951C107.968 44.4251 108.731 45.4882 109.898 45.4882C110.527 45.4882 111.125 45.1287 111.529 44.8742L112.023 45.7572C111.604 45.9963 110.706 46.5352 109.569 46.5352C107.578 46.5352 106.172 44.9486 106.172 42.6737C106.172 40.3842 107.638 38.8429 109.464 38.8429C112.547 38.8429 112.307 42.0758 112.307 42.4951H108.057Z"/>
    </g>
    <mask id="mask5_2026_7438" style="mask-type:luminance" maskUnits="userSpaceOnUse" x="0" y="-1" width="211"
          height="65">
      <path d="M0.0703125 63.7507H210.466V-0.0195312H0.0703125V63.7507Z" fill="white"/>
    </mask>
    <g mask="url(#mask5_2026_7438)">
      <path
        d="M115.281 38.9941L115.342 40.2818C115.865 39.2026 116.734 38.8439 117.542 38.8439C118.544 38.8439 119.174 39.3835 119.443 39.9514C119.651 40.386 119.681 40.9992 119.681 41.7473V46.3867H117.916V41.8669C117.916 41.4031 118.02 40.0266 116.868 40.0266C115.446 40.0266 115.476 42.1221 115.476 42.8257V46.3867H113.711V38.9941H115.281Z"/>
    </g>
    <mask id="mask6_2026_7438" style="mask-type:luminance" maskUnits="userSpaceOnUse" x="0" y="-1" width="211"
          height="65">
      <path d="M0.0703125 63.7507H210.466V-0.0195312H0.0703125V63.7507Z" fill="white"/>
    </mask>
    <g mask="url(#mask6_2026_7438)">
      <path
        d="M124.997 40.1298C124.548 39.9504 124.144 39.8155 123.68 39.8155C123.007 39.8155 122.662 40.175 122.662 40.5943C122.662 40.9085 122.917 41.2373 123.53 41.6267L124.174 42.0597C124.953 42.5694 125.745 43.1834 125.745 44.2748C125.745 45.5326 124.698 46.5352 123.111 46.5352C122.213 46.5352 121.51 46.2508 121.031 45.9818L121.451 45.0835C121.825 45.2781 122.379 45.5472 123.052 45.5472C123.62 45.5472 124.144 45.2176 124.144 44.6343C124.144 43.9759 123.44 43.6318 122.917 43.2731L122.319 42.8684C121.495 42.2851 121.047 41.701 121.047 40.9085C121.047 39.801 122.048 38.8429 123.605 38.8429C123.875 38.8429 124.533 38.8728 125.341 39.2177L124.997 40.1298Z"/>
    </g>
    <path d="M128.726 46.3848H126.961V38.9922H128.726V46.3848Z"/>
    <path
      d="M132.159 42.7036C132.159 43.9307 132.279 45.607 133.551 45.607C134.852 45.607 134.987 43.8257 134.987 42.6292C134.987 41.2074 134.748 39.7703 133.625 39.7703C132.279 39.7703 132.159 41.5968 132.159 42.689V42.7036ZM130.273 42.7641C130.273 40.3988 131.575 38.8421 133.67 38.8421C135.915 38.8421 136.874 40.6234 136.874 42.5993C136.874 44.8888 135.646 46.5352 133.506 46.5352C131.53 46.5352 130.273 45.0536 130.273 42.7787V42.7641Z"/>
    <path
      d="M139.977 38.9922L140.037 40.2798C140.561 39.2007 141.429 38.8419 142.237 38.8419C143.24 38.8419 143.869 39.3815 144.138 39.9495C144.346 40.3841 144.376 40.9973 144.376 41.7453V46.3848H142.611V41.8649C142.611 41.4012 142.715 40.0246 141.563 40.0246C140.142 40.0246 140.171 42.1201 140.171 42.8238V46.3848H138.406V38.9922H139.977Z"/>
    <path
      d="M149.7 40.1298C149.251 39.9504 148.847 39.8155 148.383 39.8155C147.71 39.8155 147.365 40.175 147.365 40.5943C147.365 40.9085 147.62 41.2373 148.233 41.6267L148.877 42.0597C149.656 42.5694 150.448 43.1834 150.448 44.2748C150.448 45.5326 149.401 46.5352 147.815 46.5352C146.916 46.5352 146.213 46.2508 145.734 45.9818L146.154 45.0835C146.528 45.2781 147.082 45.5472 147.755 45.5472C148.324 45.5472 148.847 45.2176 148.847 44.6343C148.847 43.9759 148.143 43.6318 147.62 43.2731L147.022 42.8684C146.198 42.2851 145.75 41.701 145.75 40.9085C145.75 39.801 146.751 38.8429 148.308 38.8429C148.578 38.8429 149.236 38.8728 150.044 39.2177L149.7 40.1298Z"/>
    <path
      d="M156.746 42.4808H158.931L157.853 39.024L156.746 42.4808ZM158.721 36.51L162.178 46.3867H160.188L159.245 43.4833H156.431L155.503 46.3867H154.172L157.569 36.51H158.721Z"/>
    <path
      d="M164.938 38.9931V43.5122C164.938 44.0963 164.938 44.5454 165.132 44.8742C165.282 45.1586 165.582 45.3533 165.985 45.3533C166.524 45.3533 166.973 44.9639 167.213 44.2603C167.377 43.7521 167.377 43.0186 167.377 42.5396V38.9931H169.128V46.3857H167.571L167.497 45.0988C166.943 46.237 166.015 46.5352 165.326 46.5352C164.354 46.5352 163.681 45.9818 163.411 45.3088C163.216 44.8742 163.172 44.3507 163.172 43.6325V38.9931H164.938Z"/>
    <path
      d="M173.075 37.0328V38.9926H174.452V39.9661H173.135V44.3211C173.135 44.9489 173.135 45.4425 173.779 45.4425C174.018 45.4425 174.212 45.3681 174.346 45.3237L174.602 46.2664C174.108 46.4304 173.599 46.4902 173.075 46.4902C172.387 46.4902 171.832 46.2511 171.579 45.7575C171.369 45.3536 171.384 44.8745 171.384 44.4553V39.9661H170.352V38.9926H171.458L171.504 37.0328H173.075Z"/>
    <path
      d="M177.617 35.5354V40.1296C177.901 39.5318 178.574 38.8427 179.727 38.8427C180.819 38.8427 181.358 39.5011 181.583 39.905C181.837 40.3542 181.837 41.0578 181.837 41.7308V46.3848H180.071V41.8511C180.071 41.1774 180.071 40.8332 179.847 40.4738C179.727 40.2499 179.472 40.0246 179.024 40.0246C178.5 40.0246 178.051 40.3841 177.811 41.0724C177.617 41.6411 177.617 42.3892 177.617 42.8238V46.3848H175.852V35.5354H177.617Z"/>
    <path
      d="M185.175 42.7036C185.175 43.9307 185.294 45.607 186.566 45.607C187.868 45.607 188.003 43.8257 188.003 42.6292C188.003 41.2074 187.764 39.7703 186.641 39.7703C185.294 39.7703 185.175 41.5968 185.175 42.689V42.7036ZM183.289 42.7641C183.289 40.3988 184.591 38.8421 186.685 38.8421C188.93 38.8421 189.889 40.6234 189.889 42.5993C189.889 44.8888 188.661 46.5352 186.521 46.5352C184.546 46.5352 183.289 45.0536 183.289 42.7787V42.7641Z"/>
    <path
      d="M193.016 38.9922L193.061 40.8332C193.45 39.5762 194.214 38.8718 194.916 38.8718C195.096 38.8718 195.291 38.8879 195.605 38.9922L195.306 40.5335C195.096 40.4584 194.871 40.4439 194.722 40.4439C194.214 40.4439 193.69 40.8033 193.436 41.4617C193.196 42.0902 193.196 43.2269 193.196 43.7366V46.3848H191.43V38.9922H193.016Z"/>
    <path d="M198.382 46.3848H196.617V38.9922H198.382V46.3848Z"/>
    <path
      d="M202.333 37.0328V38.9926H203.71V39.9661H202.393V44.3211C202.393 44.9489 202.393 45.4425 203.037 45.4425C203.275 45.4425 203.47 45.3681 203.605 45.3237L203.859 46.2664C203.366 46.4304 202.857 46.4902 202.333 46.4902C201.644 46.4902 201.09 46.2511 200.836 45.7575C200.627 45.3536 200.642 44.8745 200.642 44.4553V39.9661H199.609V38.9926H200.716L200.761 37.0328H202.333Z"/>
    <path
      d="M206.016 38.9928L207.692 43.8269L209.203 38.9928H210.46L206.914 49.1094H205.448C205.836 48.5407 206.435 47.5826 206.839 46.3853L204.07 38.9928H206.016Z"/>
    <path
      d="M74.6441 25.5179H76.8293L75.7517 22.0611L74.6441 25.5179ZM76.6193 19.5471L80.0768 29.4238H78.0863L77.1436 26.5204H74.3299L73.4017 29.4238H72.0703L75.4673 19.5471H76.6193Z"/>
    <path
      d="M82.6494 22.0293L82.7092 23.3169C83.2334 22.2378 84.1011 21.8791 84.9089 21.8791C85.9115 21.8791 86.5407 22.4186 86.8098 22.9866C87.019 23.4212 87.0489 24.0344 87.0489 24.7824V29.4219H85.283V24.9028C85.283 24.4383 85.388 23.0617 84.236 23.0617C82.8142 23.0617 82.8433 25.1572 82.8433 25.8609V29.4219H81.0781V22.0293H82.6494Z"/>
    <path
      d="M94.4967 20.0699V22.0297H95.8733V23.0032H94.5565V27.3582C94.5565 27.986 94.5565 28.4796 95.2003 28.4796C95.4387 28.4796 95.6334 28.4052 95.7683 28.3608L96.0227 29.3035C95.5291 29.4676 95.021 29.5273 94.4967 29.5273C93.8076 29.5273 93.2543 29.2882 92.9998 28.7946C92.7905 28.3907 92.8059 27.9116 92.8059 27.4924V23.0032H91.7734V22.0297H92.8802L92.9254 20.0699H94.4967Z"/>
    <path
      d="M99.1967 19.5461V25.1436C99.1967 26.475 99.2265 27.0736 99.5707 27.5971C99.9148 28.1359 100.513 28.3911 101.097 28.3911C101.65 28.3911 102.399 28.1359 102.729 27.4177C102.952 26.9839 103.058 26.5194 103.058 25.129V19.5461H104.36V25.1735C104.36 25.8771 104.629 29.5723 100.737 29.5723C100.184 29.5723 98.4777 29.4979 97.64 27.8071C97.341 27.2077 97.2812 26.5194 97.2812 25.3973V19.5461H99.1967Z"/>
    <path
      d="M107.808 25.7261C107.808 26.7593 107.957 28.3904 109.095 28.3904C110.441 28.3904 110.441 26.1607 110.441 25.6962C110.441 24.709 110.307 23.0626 109.14 23.0626C108.406 23.0626 107.808 23.9157 107.808 25.7116V25.7261ZM112.207 18.5727V29.4228H110.636L110.575 28.1505C110.038 29.1829 109.274 29.5723 108.481 29.5723C106.745 29.5723 105.938 27.7764 105.938 25.7407C105.938 23.0925 107.254 21.88 108.586 21.88C109.827 21.88 110.277 22.8082 110.441 23.137V18.5727H112.207Z"/>
    <path
      d="M115.308 27.3878C115.308 28.1359 115.831 28.48 116.31 28.48C116.818 28.48 117.208 28.1359 117.418 27.6561C117.642 27.1188 117.672 26.5347 117.672 25.7713V25.3674C115.981 26.0557 115.308 26.4596 115.308 27.3733V27.3878ZM117.911 29.4228L117.791 28.1957C117.283 29.1384 116.504 29.5723 115.622 29.5723C114.305 29.5723 113.602 28.5697 113.602 27.5817C113.602 25.9806 115.217 25.3521 117.672 24.4998V24.3043C117.672 23.3616 117.133 22.9584 116.236 22.9584C115.457 22.9584 114.843 23.2727 114.409 23.4957L114.005 22.5836C114.649 22.2548 115.546 21.88 116.625 21.88C117.327 21.88 118.645 22.0601 119.169 23.0182C119.348 23.3769 119.394 23.7065 119.394 24.5151V26.7141C119.394 27.6116 119.438 28.5398 119.617 29.4228H117.911Z"/>
    <path
      d="M123.001 22.0293L123.045 23.8703C123.434 22.6133 124.198 21.9089 124.9 21.9089C125.081 21.9089 125.276 21.925 125.59 22.0293L125.29 23.5707C125.081 23.4955 124.856 23.481 124.706 23.481C124.198 23.481 123.674 23.8404 123.42 24.4988C123.18 25.1273 123.18 26.264 123.18 26.7737V29.4219H121.414V22.0293H123.001Z"/>
    <path
      d="M127.605 27.3878C127.605 28.1359 128.128 28.48 128.607 28.48C129.115 28.48 129.505 28.1359 129.715 27.6561C129.939 27.1188 129.969 26.5347 129.969 25.7713V25.3674C128.278 26.0557 127.605 26.4596 127.605 27.3733V27.3878ZM130.208 29.4228L130.088 28.1957C129.58 29.1384 128.802 29.5723 127.919 29.5723C126.602 29.5723 125.898 28.5697 125.898 27.5817C125.898 25.9806 127.514 25.3521 129.969 24.4998V24.3043C129.969 23.3616 129.43 22.9584 128.533 22.9584C127.754 22.9584 127.14 23.2727 126.706 23.4957L126.302 22.5836C126.946 22.2548 127.843 21.88 128.921 21.88C129.624 21.88 130.942 22.0601 131.466 23.0182C131.645 23.3769 131.691 23.7065 131.691 24.5151V26.7141C131.691 27.6116 131.735 28.5398 131.914 29.4228H130.208Z"/>
    <path
      d="M137.036 23.1669C136.587 22.9875 136.183 22.8526 135.719 22.8526C135.046 22.8526 134.701 23.2121 134.701 23.6314C134.701 23.9456 134.956 24.2744 135.569 24.6638L136.213 25.0969C136.992 25.6066 137.784 26.2205 137.784 27.3119C137.784 28.5697 136.737 29.5723 135.151 29.5723C134.252 29.5723 133.549 29.2879 133.07 29.0189L133.49 28.1206C133.864 28.3153 134.418 28.5843 135.091 28.5843C135.659 28.5843 136.183 28.2547 136.183 27.6714C136.183 27.013 135.479 26.6689 134.956 26.3102L134.358 25.9055C133.534 25.3222 133.086 24.7381 133.086 23.9456C133.086 22.8381 134.087 21.8792 135.644 21.8792C135.914 21.8792 136.572 21.9099 137.38 22.2548L137.036 23.1669Z"/>
    <path
      d="M144.65 20.6087V24.0654H145.428C146.296 24.0654 147.328 23.9466 147.328 22.1799C147.328 20.5343 146.177 20.6087 145.442 20.6087H144.65ZM145.458 19.5463C146.73 19.5463 147.508 19.5762 148.241 20.0254C149.124 20.5642 149.305 21.5215 149.305 22.15C149.305 24.1107 147.793 25.1584 145.862 25.1584H144.65V29.4238H142.734V19.5463H145.458Z"/>
    <path d="M152.218 29.4219H150.453V22.0293H152.218V29.4219Z"/>
    <path
      d="M155.883 22.0293L155.944 23.3169C156.467 22.2378 157.335 21.8791 158.143 21.8791C159.146 21.8791 159.775 22.4186 160.044 22.9866C160.253 23.4212 160.283 24.0344 160.283 24.7824V29.4219H158.517V24.9028C158.517 24.4383 158.622 23.0617 157.47 23.0617C156.048 23.0617 156.078 25.1572 156.078 25.8609V29.4219H154.312V22.0293H155.883Z"/>
    <path
      d="M165.606 23.1669C165.157 22.9875 164.753 22.8526 164.29 22.8526C163.617 22.8526 163.272 23.2121 163.272 23.6314C163.272 23.9456 163.526 24.2744 164.139 24.6638L164.783 25.0969C165.562 25.6066 166.354 26.2205 166.354 27.3119C166.354 28.5697 165.307 29.5723 163.721 29.5723C162.823 29.5723 162.12 29.2879 161.641 29.0189L162.06 28.1206C162.434 28.3153 162.988 28.5843 163.661 28.5843C164.23 28.5843 164.753 28.2547 164.753 27.6714C164.753 27.013 164.05 26.6689 163.526 26.3102L162.928 25.9055C162.104 25.3222 161.656 24.7381 161.656 23.9456C161.656 22.8381 162.658 21.8792 164.214 21.8792C164.484 21.8792 165.143 21.9099 165.95 22.2548L165.606 23.1669Z"/>
    <path
      d="M171.544 24.6638C171.558 23.5271 171.125 22.7936 170.377 22.7936C169.823 22.7936 169.134 23.3616 169 24.6638H171.544ZM168.94 25.5322C168.851 27.4622 169.614 28.5253 170.781 28.5253C171.41 28.5253 172.008 28.1658 172.412 27.9113L172.906 28.7943C172.487 29.0334 171.588 29.5723 170.452 29.5723C168.46 29.5723 167.055 27.9857 167.055 25.7108C167.055 23.4221 168.521 21.88 170.347 21.88C173.429 21.88 173.19 25.1129 173.19 25.5322H168.94Z"/>
    <path
      d="M175.597 27.3878C175.597 28.1359 176.12 28.48 176.599 28.48C177.107 28.48 177.497 28.1359 177.707 27.6561C177.931 27.1188 177.961 26.5347 177.961 25.7713V25.3674C176.271 26.0557 175.597 26.4596 175.597 27.3733V27.3878ZM178.2 29.4228L178.08 28.1957C177.572 29.1384 176.794 29.5723 175.911 29.5723C174.594 29.5723 173.891 28.5697 173.891 27.5817C173.891 25.9806 175.506 25.3521 177.961 24.4998V24.3043C177.961 23.3616 177.422 22.9584 176.525 22.9584C175.746 22.9584 175.132 23.2727 174.698 23.4957L174.295 22.5836C174.938 22.2548 175.835 21.88 176.914 21.88C177.616 21.88 178.934 22.0601 179.458 23.0182C179.637 23.3769 179.683 23.7065 179.683 24.5151V26.7141C179.683 27.6116 179.727 28.5398 179.906 29.4228H178.2Z"/>
    <path
      d="M183.274 22.0312L183.334 23.3189C183.858 22.2397 184.726 21.881 185.534 21.881C186.536 21.881 187.166 22.4206 187.435 22.9886C187.643 23.4231 187.673 24.0363 187.673 24.7844V29.4238H185.908V24.9047C185.908 24.4402 186.012 23.0637 184.86 23.0637C183.438 23.0637 183.468 25.1592 183.468 25.8628V29.4238H181.703V22.0312H183.274Z"/>
    <path
      d="M126.906 36.4193C126.906 36.939 127.329 37.3613 127.849 37.3613C128.369 37.3613 128.791 36.939 128.791 36.4193C128.791 35.8989 128.369 35.4766 127.849 35.4766C127.329 35.4766 126.906 35.8989 126.906 36.4193Z"/>
    <path
      d="M196.555 36.4193C196.555 36.939 196.977 37.3613 197.497 37.3613C198.018 37.3613 198.439 36.939 198.439 36.4193C198.439 35.8989 198.018 35.4766 197.497 35.4766C196.977 35.4766 196.555 35.8989 196.555 36.4193Z"/>
    <path
      d="M150.391 19.4545C150.391 19.9749 150.813 20.3965 151.333 20.3965C151.853 20.3965 152.275 19.9749 152.275 19.4545C152.275 18.9341 151.853 18.5125 151.333 18.5125C150.813 18.5125 150.391 18.9341 150.391 19.4545Z"/>
    <path d="M103.277 17.3785L100.063 18.877L99.6641 18.0239L102.879 16.5247L103.277 17.3785Z"/>
    <path d="M131.394 19.6851L128.18 21.1836L127.781 20.3297L130.996 18.8313L131.394 19.6851Z"/>
    <path
      d="M40.0765 11.2141C45.2207 16.6206 46.276 29.6038 38.0595 34.8083L44.5971 45.8281C53.9211 39.1494 57.533 19.7403 43.4883 7.0405C32.7296 -2.68673 14.6455 0.945362 6.42969 10.2707C18.3631 1.3466 30.8915 1.55946 40.0765 11.2141Z"/>
    <path
      d="M6.48691 35.2471C7.67637 27.8792 17.3724 19.1821 26.489 22.5717L31.3038 10.6972C20.3431 7.31723 2.70701 16.1905 1.1001 35.0567C-0.131466 49.5092 13.705 61.7056 26.1007 62.6016C11.7741 58.5039 4.36073 48.4018 6.48691 35.2471Z"/>
    <path
      d="M46.6161 49.3129C40.0343 52.8325 27.2396 50.3939 24.4092 41.0883L12.0469 44.4574C16.0036 55.2222 33.6783 63.7539 49.7297 53.7122C61.2557 46.5008 62.4798 29.487 57.2162 17.9813C62.6424 31.8584 58.3657 43.0287 46.6161 49.3129Z"
      fill="#F19B0A"/>
  </g></svg>