<svg width="93" height="36" viewBox="0 0 93 36" fill="none" xmlns="http://www.w3.org/2000/svg">
<g clip-path="url(#clip0_849_545)">
<path d="M1.85398 13.5213C1.43343 13.5213 1.02283 13.3764 0.696835 13.1141C0.311118 12.8044 0.067246 12.3597 0.0124992 11.8677C-0.0422477 11.3756 0.0971079 10.8885 0.40817 10.4988L7.98563 0.991717C8.32407 0.567071 8.82675 0.314781 9.36924 0.294798H9.43394C9.85201 0.294798 10.2651 0.439677 10.5911 0.701959C11.3899 1.34392 11.5193 2.51545 10.8798 3.31728L3.30229 12.8244C2.96385 13.249 2.46118 13.5013 1.91869 13.5213H1.85398Z" fill="#1C3E3F"/>
<path d="M19.3356 13.5612C18.4348 13.5612 17.5862 13.4063 16.8148 13.1016C16.0334 12.7943 15.3465 12.3347 14.7717 11.7377C14.1993 11.1407 13.7464 10.3963 13.4254 9.52207C13.1094 8.65779 12.9476 7.65112 12.9476 6.53455C12.9476 5.63281 13.092 4.77852 13.3781 3.99417C13.6643 3.20233 14.0824 2.50291 14.6199 1.9159C15.1599 1.32639 15.8218 0.854288 16.5933 0.514571C17.3622 0.172356 18.2407 0 19.2037 0C20.0075 0 20.764 0.13239 21.4508 0.397169C22.1476 0.664446 22.7573 1.06162 23.2649 1.57868C23.7701 2.09575 24.1683 2.73272 24.4495 3.4746C24.7282 4.21149 24.8675 5.05329 24.8675 5.97752C24.8675 6.4821 24.8053 6.80433 24.666 7.02165C24.5689 7.17152 24.33 7.42381 23.8224 7.42381H16.3942L16.4415 7.73106C16.4937 8.07327 16.5709 8.38801 16.6679 8.66278C16.8322 9.1174 17.0512 9.49709 17.3199 9.79184C17.5812 10.0791 17.8997 10.2964 18.2631 10.4363C18.6413 10.5812 19.0718 10.6561 19.5471 10.6561C20.0224 10.6561 20.4032 10.6037 20.7292 10.5013C21.0726 10.3913 21.3737 10.2714 21.625 10.1415C21.8888 10.0067 22.1152 9.87927 22.2969 9.76936C22.5557 9.61199 22.8095 9.53206 23.0484 9.53206C23.3968 9.53206 23.683 9.67694 23.8771 9.94921L24.8177 11.1707L24.5938 11.438C24.2603 11.8326 23.8821 12.1699 23.464 12.4396C23.0534 12.7069 22.6105 12.9267 22.1501 13.0941C21.6947 13.259 21.2169 13.3814 20.7316 13.4538C20.2563 13.5262 19.7835 13.5612 19.3331 13.5612H19.3356ZM19.251 2.74771C18.4348 2.74771 17.7927 2.97752 17.3398 3.43214C17.0362 3.73439 16.8023 4.13156 16.6381 4.61116L16.5186 4.96586H21.6773L21.6076 4.64113C21.5827 4.53122 21.5553 4.42381 21.5205 4.3189C21.416 4.00167 21.2592 3.7219 21.0576 3.48709C20.8586 3.25978 20.6097 3.07744 20.3136 2.94754C20.0125 2.81515 19.6566 2.74771 19.2535 2.74771H19.251Z" fill="#1C3E3F"/>
<path d="M36.5411 13.5612C35.5805 13.5612 34.7966 12.7769 34.7966 11.8102V5.50292C34.7966 4.76853 34.6349 4.2015 34.3164 3.81682C34.1223 3.58451 33.7639 3.27477 32.883 3.27477C32.3704 3.27477 31.8901 3.39467 31.4546 3.62698C31.0714 3.83431 30.7006 4.10908 30.3522 4.4438L30.2701 4.52373V11.8102C30.2701 12.7744 29.4887 13.5612 28.5256 13.5612C27.5626 13.5612 26.7712 12.7769 26.7712 11.8102V0.512074H28.7969C29.3394 0.512074 29.74 0.804331 29.8943 1.31391L30.0038 1.6786L30.3074 1.44879C30.5985 1.23147 30.9096 1.03664 31.2306 0.874272C31.584 0.69692 31.9647 0.557037 32.3604 0.459618C32.7586 0.362199 33.1965 0.312241 33.6619 0.312241C34.4035 0.312241 35.0704 0.439634 35.6427 0.691924C36.2176 0.946712 36.7103 1.31141 37.106 1.77852C37.4966 2.23814 37.7953 2.79767 37.9919 3.43714C38.1835 4.06162 38.2805 4.75604 38.2805 5.50042V11.8077C38.2805 12.7719 37.4991 13.5587 36.5361 13.5587L36.5411 13.5612Z" fill="#1C3E3F"/>
<path d="M1.73697 4.01413C0.778899 4.01413 0 3.17983 0 2.15319C0 1.12654 0.778899 0.292236 1.73697 0.292236H9.54835C10.5064 0.292236 11.2853 1.12654 11.2853 2.15319C11.2853 3.17983 10.5064 4.01413 9.54835 4.01413H1.73697Z" fill="#1C3E3F"/>
<path d="M9.34182 13.5188C8.31656 13.5188 7.48291 12.682 7.48291 11.6528C7.48291 10.6237 8.31656 9.78689 9.34182 9.78689C10.3671 9.78689 11.2007 10.6237 11.2007 11.6528C11.2007 12.682 10.3671 13.5188 9.34182 13.5188Z" fill="#1C3E3F"/>
<path d="M15.7397 26.2407C15.7721 26.9526 15.8816 27.5671 16.0682 28.0841C16.2548 28.6037 16.5062 29.0333 16.8197 29.3781C17.1333 29.7228 17.5066 29.9776 17.942 30.1449C18.3775 30.3123 18.8628 30.3972 19.4003 30.3972C19.9378 30.3972 20.3559 30.3373 20.7316 30.2199C21.1049 30.1025 21.4309 29.9701 21.7071 29.8277C21.9834 29.6853 22.2198 29.5529 22.4164 29.4355C22.6105 29.3181 22.7896 29.2582 22.9539 29.2582C23.1654 29.2582 23.3271 29.3406 23.4416 29.503L24.1857 30.4721C23.8771 30.8393 23.5262 31.1516 23.1355 31.4039C22.7448 31.6562 22.3293 31.8635 21.8888 32.0234C21.4483 32.1832 20.9979 32.2956 20.5326 32.3656C20.0697 32.4355 19.6168 32.4705 19.1763 32.4705C18.3128 32.4705 17.514 32.3256 16.7774 32.0358C16.0408 31.7461 15.4013 31.3189 14.8613 30.7544C14.3188 30.1899 13.8958 29.493 13.5922 28.6587C13.2861 27.8244 13.1343 26.8652 13.1343 25.7786C13.1343 24.9118 13.2711 24.105 13.5424 23.3531C13.8136 22.6012 14.2043 21.9493 14.7145 21.3922C15.2221 20.8377 15.8418 20.398 16.5709 20.0758C17.3 19.7536 18.1237 19.5912 19.0445 19.5912C19.8084 19.5912 20.5176 19.7161 21.1696 19.9659C21.8216 20.2157 22.3815 20.5804 22.8543 21.0625C23.3271 21.5446 23.6954 22.1341 23.9592 22.8335C24.223 23.5329 24.3549 24.3273 24.3549 25.2165C24.3549 25.6262 24.3101 25.8985 24.2205 26.0383C24.1309 26.1782 23.9692 26.2457 23.7328 26.2457H15.7372L15.7397 26.2407ZM22.0033 24.622C22.0033 24.1799 21.9411 23.7702 21.8141 23.3906C21.6872 23.0109 21.5031 22.6786 21.2592 22.3989C21.0153 22.1166 20.7117 21.8968 20.3484 21.7369C19.9851 21.5771 19.5695 21.4971 19.0967 21.4971C18.1436 21.4971 17.3946 21.7719 16.8496 22.3189C16.3046 22.866 15.9587 23.6353 15.8119 24.622H22.0008H22.0033Z" fill="#1C3E3F"/>
<path d="M29.2248 21.4346C29.4936 21.1573 29.7723 20.9051 30.061 20.6802C30.3496 20.4554 30.6582 20.2606 30.9817 20.0982C31.3077 19.9359 31.6536 19.8085 32.0194 19.7185C32.3852 19.6286 32.7834 19.5837 33.2164 19.5837C33.9007 19.5837 34.5004 19.6986 35.018 19.9259C35.5356 20.1532 35.9711 20.4779 36.3245 20.8951C36.6779 21.3122 36.9441 21.8118 37.1233 22.3963C37.3025 22.9808 37.3921 23.6228 37.3921 24.3272V30.9692C37.3921 31.6936 36.8073 32.2806 36.0856 32.2806C35.3639 32.2806 34.7791 31.6936 34.7791 30.9692V24.3272C34.7791 23.4854 34.585 22.8334 34.1993 22.3663C33.8136 21.9017 33.2238 21.6669 32.435 21.6669C31.8477 21.6669 31.3052 21.8018 30.805 22.0716C30.3048 22.3414 29.8345 22.7086 29.394 23.1757V30.9692C29.394 31.6936 28.8092 32.2806 28.0876 32.2806H28.0751C27.3535 32.2806 26.7687 31.6936 26.7687 30.9692V19.781H28.3563C28.7147 19.781 28.9436 19.9484 29.0407 20.2831L29.2248 21.4346Z" fill="#1C3E3F"/>
<path d="M3.01359 21.4172C3.01359 22.6911 2.56069 22.5313 3.1853 23.1582V34.6911C3.1853 35.4155 2.6005 36.0025 1.87884 36.0025H1.8664C1.14473 36.0025 0.559937 35.4155 0.559937 34.6911V19.7636H2.1476C2.50594 19.7636 2.73488 19.9309 2.83193 20.2656L3.01608 21.4172H3.01359Z" fill="#1C3E3F"/>
<path d="M47.9035 22.0491C47.8388 22.164 47.7641 22.2464 47.6845 22.2939C47.6024 22.3439 47.5004 22.3663 47.3784 22.3663C47.2391 22.3663 47.0898 22.3239 46.928 22.2365C46.7662 22.149 46.5746 22.0541 46.3532 21.9492C46.1342 21.8443 45.8754 21.7469 45.5767 21.6619C45.2806 21.577 44.9322 21.532 44.5316 21.532C44.2056 21.532 43.9119 21.572 43.6457 21.6494C43.3819 21.7269 43.1579 21.8368 42.9738 21.9792C42.7896 22.1215 42.6503 22.2889 42.5532 22.4812C42.4562 22.6736 42.4064 22.8784 42.4064 23.1007C42.4064 23.3955 42.496 23.6403 42.6752 23.8351C42.8543 24.03 43.0907 24.1998 43.3819 24.3447C43.6755 24.4871 44.009 24.617 44.3823 24.7319C44.7555 24.8468 45.1388 24.9692 45.5295 25.0991C45.9202 25.229 46.3034 25.3813 46.6767 25.5537C47.0499 25.726 47.3834 25.9359 47.677 26.1857C47.9707 26.4355 48.2071 26.7377 48.3863 27.0924C48.5654 27.4471 48.655 27.8792 48.655 28.3863C48.655 28.9733 48.548 29.5179 48.3365 30.015C48.125 30.5121 47.8164 30.9467 47.4083 31.3139C47.0002 31.6811 46.495 31.9683 45.8878 32.1707C45.2806 32.3755 44.5863 32.4779 43.8074 32.4779C43.3769 32.4779 42.9589 32.438 42.5557 32.3605C42.1526 32.2831 41.7694 32.1757 41.4085 32.0433C41.0477 31.9109 40.7093 31.746 40.3957 31.5587C40.0822 31.3713 39.8034 31.1665 39.5596 30.9467L40.1693 29.9425C40.2414 29.8201 40.3335 29.7227 40.443 29.6553C40.5525 29.5853 40.6893 29.5504 40.8511 29.5504C41.0228 29.5504 41.192 29.6053 41.3588 29.7152C41.5255 29.8251 41.7221 29.945 41.946 30.0774C42.17 30.2073 42.4412 30.3297 42.7573 30.4396C43.0733 30.5495 43.469 30.6045 43.9418 30.6045C44.3325 30.6045 44.6709 30.557 44.9546 30.4646C45.2408 30.3697 45.4747 30.2423 45.6638 30.0774C45.8505 29.9151 45.9898 29.7277 46.0794 29.5204C46.169 29.3131 46.2138 29.0907 46.2138 28.8534C46.2138 28.5337 46.1242 28.2739 45.945 28.0691C45.7659 27.8643 45.527 27.6894 45.2308 27.542C44.9347 27.3947 44.5963 27.2648 44.218 27.1499C43.8398 27.035 43.4541 26.9126 43.0634 26.7827C42.6727 26.6528 42.287 26.5004 41.9087 26.3305C41.5305 26.1582 41.192 25.9409 40.8959 25.6736C40.5998 25.4088 40.3609 25.0866 40.1817 24.7044C40.0025 24.3247 39.9129 23.8601 39.9129 23.3131C39.9129 22.816 40.0125 22.3414 40.2116 21.8917C40.4106 21.4421 40.7043 21.0449 41.09 20.7027C41.4757 20.3605 41.9535 20.0882 42.5184 19.8884C43.0833 19.6886 43.7378 19.5887 44.4768 19.5887C45.3155 19.5887 46.0769 19.7235 46.7588 19.9933C47.4431 20.2631 48.0155 20.6303 48.4808 21.0974L47.8935 22.0541L47.9035 22.0491Z" fill="#1C3E3F"/>
<path d="M52.552 19.781H52.5495C51.8252 19.781 51.238 20.3704 51.238 21.0974V30.9642C51.238 31.6912 51.8252 32.2806 52.5495 32.2806H52.552C53.2762 32.2806 53.8634 31.6912 53.8634 30.9642V21.0974C53.8634 20.3704 53.2762 19.781 52.552 19.781Z" fill="#1C3E3F"/>
<path d="M62.5533 19.5862C63.4741 19.5862 64.3052 19.7386 65.0493 20.0408C65.7933 20.3431 66.4279 20.7727 66.953 21.3273C67.4781 21.8818 67.8837 22.5562 68.1674 23.3481C68.4511 24.1399 68.5954 25.0317 68.5954 26.0184C68.5954 27.005 68.4535 27.8968 68.1674 28.6886C67.8812 29.4805 67.4781 30.1574 66.953 30.7169C66.4279 31.2765 65.7933 31.7086 65.0493 32.0109C64.3052 32.3131 63.4716 32.4655 62.5533 32.4655C61.6351 32.4655 60.789 32.3131 60.0449 32.0109C59.3009 31.7086 58.6638 31.2765 58.1338 30.7169C57.6037 30.1574 57.1981 29.4805 56.9119 28.6886C56.6282 27.8968 56.4839 27.005 56.4839 26.0184C56.4839 25.0317 56.6257 24.1399 56.9119 23.3481C57.1981 22.5562 57.6037 21.8818 58.1338 21.3273C58.6638 20.7727 59.3009 20.3431 60.0449 20.0408C60.789 19.7386 61.6251 19.5862 62.5533 19.5862ZM62.5533 30.4072C63.6756 30.4072 64.5143 30.03 65.0617 29.2731C65.6117 28.5163 65.8854 27.4372 65.8854 26.0308C65.8854 24.6245 65.6117 23.5404 65.0617 22.7761C64.5118 22.0117 63.6756 21.6295 62.5533 21.6295C61.431 21.6295 60.5675 22.0117 60.0151 22.7761C59.4626 23.5404 59.1839 24.6245 59.1839 26.0308C59.1839 27.4372 59.4601 28.5163 60.0151 29.2731C60.5675 30.03 61.4136 30.4072 62.5533 30.4072Z" fill="#1C3E3F"/>
<path d="M73.5649 21.4346C73.8337 21.1573 74.1124 20.9051 74.401 20.6802C74.6897 20.4554 74.9983 20.2606 75.3218 20.0982C75.6478 19.9359 75.9937 19.8085 76.3595 19.7185C76.7253 19.6286 77.1235 19.5837 77.5565 19.5837C78.2408 19.5837 78.8405 19.6986 79.3581 19.9259C79.8757 20.1557 80.3112 20.4779 80.6646 20.8951C81.0179 21.3122 81.2842 21.8118 81.4634 22.3963C81.6426 22.9808 81.7321 23.6228 81.7321 24.3272V30.9692C81.7321 31.6936 81.1474 32.2806 80.4257 32.2806C79.704 32.2806 79.1192 31.6936 79.1192 30.9692V24.3272C79.1192 23.4854 78.9251 22.8334 78.5394 22.3663C78.1537 21.9017 77.5639 21.6669 76.7751 21.6669C76.1878 21.6669 75.6453 21.8018 75.1451 22.0716C74.6449 22.3414 74.1746 22.7086 73.7341 23.1757V30.9692C73.7341 31.6936 73.1493 32.2806 72.4277 32.2806H72.4152C71.6936 32.2806 71.1088 31.6936 71.1088 30.9692V19.781H72.6964C73.0548 19.781 73.2837 19.9484 73.3808 20.2831L73.5649 21.4346Z" fill="#1C3E3F"/>
<path d="M92.2435 22.0491C92.1788 22.164 92.1041 22.2464 92.0245 22.2939C91.9423 22.3439 91.8403 22.3663 91.7184 22.3663C91.579 22.3663 91.4297 22.3239 91.268 22.2365C91.1062 22.149 90.9146 22.0541 90.6931 21.9492C90.4741 21.8443 90.2153 21.7469 89.9167 21.6619C89.6206 21.577 89.2722 21.532 88.8716 21.532C88.5456 21.532 88.2519 21.572 87.9856 21.6494C87.7219 21.7269 87.4979 21.8368 87.3138 21.9792C87.1296 22.1215 86.9902 22.2889 86.8932 22.4812C86.7961 22.6736 86.7464 22.8784 86.7464 23.1007C86.7464 23.3955 86.836 23.6403 87.0151 23.8351C87.1943 24.03 87.4307 24.1998 87.7219 24.3447C88.0155 24.4871 88.349 24.617 88.7222 24.7319C89.0955 24.8468 89.4787 24.9692 89.8694 25.0991C90.2601 25.229 90.6434 25.3813 91.0166 25.5537C91.3899 25.726 91.7234 25.9359 92.017 26.1857C92.3106 26.4355 92.5471 26.7377 92.7262 27.0924C92.9054 27.4471 92.995 27.8792 92.995 28.3863C92.995 28.9733 92.888 29.5179 92.6765 30.015C92.4649 30.5121 92.1564 30.9467 91.7482 31.3139C91.3401 31.6811 90.835 31.9683 90.2278 32.1707C89.6206 32.3755 88.9263 32.4779 88.1474 32.4779C87.7169 32.4779 87.2988 32.438 86.8957 32.3605C86.4925 32.2831 86.1093 32.1757 85.7485 32.0433C85.3877 31.9109 85.0492 31.746 84.7357 31.5587C84.4221 31.3713 84.1434 31.1665 83.8995 30.9467L84.5092 29.9425C84.5814 29.8201 84.6735 29.7227 84.783 29.6553C84.8924 29.5853 85.0293 29.5504 85.1911 29.5504C85.3628 29.5504 85.532 29.6053 85.6987 29.7152C85.8654 29.8251 86.062 29.945 86.286 30.0774C86.51 30.2073 86.7812 30.3297 87.0973 30.4396C87.4133 30.5495 87.809 30.6045 88.2818 30.6045C88.6725 30.6045 89.0109 30.557 89.2946 30.4646C89.5808 30.3697 89.8147 30.2423 90.0038 30.0774C90.1904 29.9151 90.3298 29.7277 90.4194 29.5204C90.509 29.3131 90.5538 29.0907 90.5538 28.8534C90.5538 28.5337 90.4642 28.2739 90.285 28.0691C90.1058 27.8643 89.8669 27.6894 89.5708 27.542C89.2747 27.3947 88.9362 27.2648 88.558 27.1499C88.1797 27.035 87.794 26.9126 87.4033 26.7827C87.0126 26.6528 86.6269 26.5004 86.2487 26.3305C85.8704 26.1582 85.532 25.9409 85.2359 25.6736C84.9397 25.4088 84.7008 25.0866 84.5217 24.7044C84.3425 24.3247 84.2529 23.8601 84.2529 23.3131C84.2529 22.816 84.3524 22.3414 84.5515 21.8917C84.7506 21.4421 85.0442 21.0449 85.43 20.7027C85.8157 20.3605 86.2935 20.0882 86.8584 19.8884C87.4232 19.6886 88.0777 19.5887 88.8168 19.5887C89.6554 19.5887 90.4169 19.7235 91.0987 19.9933C91.7831 20.2631 92.3554 20.6303 92.8208 21.0974L92.2335 22.0541L92.2435 22.0491Z" fill="#1C3E3F"/>
<path d="M3.07579 21.7419C3.58095 21.0924 4.16824 20.5703 4.83266 20.1757C5.49709 19.781 6.25608 19.5837 7.11212 19.5837C7.8089 19.5837 8.43849 19.721 9.00089 19.9958C9.56329 20.2706 10.0411 20.6777 10.4368 21.2148C10.8324 21.7518 11.136 22.4213 11.35 23.2181C11.564 24.015 11.671 24.9317 11.671 25.9658C11.671 26.8851 11.5516 27.7419 11.3152 28.5362C11.0788 29.328 10.7354 30.015 10.2874 30.5945C9.83951 31.174 9.29453 31.6286 8.65001 31.9633C8.00549 32.2956 7.27885 32.4629 6.47258 32.4629C5.73599 32.4629 5.1064 32.333 4.57884 32.0757C4.05128 31.816 3.58842 31.4588 3.18279 30.9966L2.25458 29.4704L1.44582 28.2914L1.05762 19.806H2.32675C2.62786 19.806 2.81449 19.9583 2.88417 20.2631L3.0733 21.7419H3.07579ZM3.18279 29.2856C3.55358 29.8276 3.96169 30.2098 4.40215 30.4321C4.84262 30.6544 5.33534 30.7643 5.88281 30.7643C6.96033 30.7643 7.78899 30.3497 8.36384 29.5204C8.94117 28.6911 9.22983 27.5071 9.22983 25.9708C9.22983 25.1565 9.16264 24.4596 9.03075 23.8751C8.89886 23.2931 8.70725 22.8135 8.45591 22.4388C8.20457 22.0641 7.89849 21.7918 7.53268 21.6195C7.16936 21.4471 6.75378 21.3597 6.29092 21.3597C5.63147 21.3597 5.05165 21.5245 4.55395 21.8518C4.05625 22.1815 3.59837 22.6436 3.18279 23.2456V29.2856Z" fill="#1C3E3F"/>
<path d="M54.1894 16.9821C54.1894 16.0723 53.4547 15.3348 52.5483 15.3348C51.6419 15.3348 50.9071 16.0723 50.9071 16.9821C50.9071 17.892 51.6419 18.6295 52.5483 18.6295C53.4547 18.6295 54.1894 17.892 54.1894 16.9821Z" fill="#1C3E3F"/>
</g>
<defs>
<clipPath id="clip0_849_545">
<rect width="93" height="36" fill="white"/>
</clipPath>
</defs>
</svg>
